   <svg width="138" height="32" viewBox="0 0 138 32" fill="none" xmlns="http://www.w3.org/2000/svg">
            <path
              d="M48.9421 20.7977C45.4965 25.4046 41.0072 28.615 35.596 30.5099C31.6713 31.8852 27.5948 32.2317 23.4583 31.8617C19.9208 31.5451 16.5308 30.6746 13.2862 29.2031C8.40547 26.9895 4.39737 23.7171 1.18489 19.4545C0.763551 18.8941 0.367873 18.3102 0 17.7114L9.31232 11.8767C9.81066 12.6296 10.3047 13.391 10.8437 14.1203C13.2691 17.4013 16.2677 20.0063 19.9379 21.8478C24.224 23.9973 28.7561 24.8143 33.4807 24.2433C38.9475 23.5824 43.5096 21.1869 46.8033 16.6548C49.295 13.2263 50.3323 9.42782 49.695 5.21439C49.4768 3.77712 49.0298 2.41684 48.3496 1.11431L50.4114 0C51.945 2.32487 52.8433 4.88929 53.0529 7.68897C53.4186 12.5932 51.8509 16.9072 48.9421 20.7977Z"
              fill="white"
            />
            <path
              d="M45.125 15.1607C43.2365 17.7722 40.7769 19.6736 37.7505 20.82C32.7799 22.7021 27.7922 22.5096 22.9179 20.6146C17.9003 18.6619 14.0077 15.3104 11.377 10.5837L17.8896 6.50071C18.0714 6.952 18.251 7.38831 18.45 7.81393C20.2615 11.7279 23.0783 14.6559 27.1549 16.1681C31.8559 17.9112 37.451 17.2824 41.1576 13.3876C43.7391 10.6714 44.6459 7.45889 43.6172 3.79941C43.6065 3.76091 43.5979 3.72669 43.5915 3.69247L46.3548 2.19531C46.8061 3.0658 47.1205 3.94485 47.2938 4.88592C47.9846 8.6117 47.3643 12.0637 45.125 15.1607Z"
              fill="#00D47E"
            />
            <path
              d="M105.609 22.7911V24.4931C104.737 24.4931 103.948 24.4866 103.159 24.4931C102.62 24.4996 102.653 24.1192 102.653 23.7671C102.648 21.8304 102.64 19.8914 102.648 17.9547C102.661 14.9202 102.681 11.8858 102.707 8.85134C102.716 7.86449 102.733 7.86449 103.748 7.86232C104.17 7.86232 104.594 7.89493 105.011 7.84928C105.585 7.78624 105.794 8.1036 105.787 8.57311C105.767 10.1795 105.711 11.7836 105.676 13.39C105.672 13.6095 105.717 13.8312 105.739 14.0529C105.933 13.9703 106.167 13.9334 106.313 13.7986C107.965 12.2597 109.904 12.1249 111.897 12.8226C113.76 13.4748 115.143 14.805 115.595 16.744C116.334 19.9132 115.59 23.0368 112.025 24.4127C109.895 25.2365 107.774 24.9496 106.091 23.1454C105.991 23.0368 105.85 22.965 105.607 22.789L105.609 22.7911ZM105.607 18.4894C105.548 20.7066 107.159 22.2325 109.284 22.2586C111.343 22.2847 112.882 20.8 112.86 18.7285C112.836 16.3071 111.363 15.1094 109.061 15.005C107.033 14.9137 105.415 16.8461 105.607 18.4894Z"
              fill="white"
            />
            <path
              d="M67.2082 8.62792C69.4036 8.49533 71.2686 9.24959 73.0032 10.4277C73.4423 10.7255 73.5379 10.9603 73.1532 11.4189C71.8772 12.9383 71.8903 12.9644 70.1339 12.0689C68.9362 11.4602 67.6799 11.1929 66.3431 11.3494C66.1366 11.3733 65.917 11.395 65.7322 11.482C65.1671 11.7406 64.5585 11.9689 64.5411 12.7514C64.5237 13.56 65.1432 13.8817 65.7214 14.0925C66.9365 14.5381 68.2124 14.8142 69.4253 15.2685C70.6165 15.7141 71.8555 16.1467 72.8967 16.8422C75.4399 18.5442 75.1464 21.6917 72.688 23.3633C70.8339 24.6262 68.771 25.0131 66.5169 24.5914C64.5976 24.2306 62.8826 23.5067 61.3306 22.3525C60.6154 21.82 60.6111 21.6874 61.2588 21.0874C61.6827 20.694 62.1174 20.3049 62.5087 19.881C62.8043 19.5615 63.0238 19.5963 63.3173 19.8724C65.0084 21.4591 67.0734 21.9373 69.3123 21.7808C69.847 21.7439 70.4122 21.5352 70.8817 21.2635C71.8511 20.7027 71.8598 19.5354 70.8534 19.0616C69.6492 18.4964 68.3754 18.0617 67.1017 17.6682C65.6496 17.2205 64.1933 16.8162 62.9565 15.8793C60.8132 14.2534 61.0415 11.3428 63.1304 9.7778C64.3607 8.85616 65.7431 8.4975 67.2125 8.62575L67.2082 8.62792Z"
              fill="white"
            />
            <path
              d="M134.753 23.2169C133.41 24.569 131.836 24.9037 130.184 24.7363C128.384 24.5516 126.832 23.8647 126.087 22.0127C125.558 20.6998 125.924 19.1022 127.041 18.1914C128.799 16.7589 130.851 16.6916 132.962 16.998C133.51 17.0763 134.04 17.2589 134.577 17.3937C134.827 16.4438 134.118 15.5221 133.064 15.2417C131.419 14.8048 129.923 15.1156 128.521 16.0177C128.102 16.2872 127.745 16.4307 127.447 15.8547C127.347 15.6612 127.13 15.5243 126.958 15.37C126.204 14.6852 126.226 14.7157 127.069 14.0962C128.56 13.0006 130.208 12.3964 132.06 12.5159C133.964 12.6398 135.768 13.118 136.879 14.8396C137.288 15.4743 137.629 16.2699 137.664 17.0067C137.768 19.2913 137.705 21.5845 137.722 23.8734C137.727 24.3385 137.533 24.4929 137.09 24.4733C136.622 24.4516 136.151 24.4494 135.686 24.4864C135.099 24.532 134.79 24.332 134.836 23.7082C134.844 23.6017 134.801 23.493 134.751 23.2191L134.753 23.2169ZM131.888 18.9C131.221 19.1022 130.323 19.2565 129.543 19.6456C128.649 20.089 128.652 21.3019 129.438 21.9323C130.406 22.7083 131.534 22.7822 132.634 22.4388C133.312 22.2279 133.979 21.7932 134.494 21.2976C135.075 20.7389 134.853 19.4695 134.255 19.3347C133.558 19.1782 132.849 19.0761 131.888 18.9044V18.9Z"
              fill="white"
            />
            <path
              d="M78.8254 19.5866C78.9362 20.9169 80.147 22.1059 81.5381 22.3124C83.0445 22.5363 84.3769 22.1777 85.4312 21.0321C85.6529 20.7909 85.7855 20.6778 86.1137 20.9082C86.6223 21.2647 87.1875 21.543 87.7353 21.8451C88.0613 22.0255 88.1157 22.2037 87.82 22.4842C85.8789 24.3231 83.6531 25.1426 80.9534 24.5774C78.8601 24.1383 77.1799 23.1732 76.2104 21.2191C74.8345 18.4455 75.9605 15.2371 78.508 13.6003C81.5577 11.6419 85.5855 12.47 87.5092 15.4088C88.2113 16.4826 88.57 17.6564 88.5939 18.9411C88.6026 19.4041 88.4026 19.5562 87.9613 19.5519C86.4984 19.5366 85.0356 19.5606 83.5727 19.5323C82.3359 19.5084 81.1012 19.4149 79.8644 19.3932C79.5144 19.3867 79.1601 19.5236 78.8254 19.591V19.5866ZM78.9493 17.2869C79.6427 17.6042 84.7986 17.5456 85.2181 17.2152C84.5247 15.7479 83.2314 14.8785 81.8207 15.0024C80.61 15.1089 79.2623 15.974 78.9493 17.2869Z"
              fill="white"
            />
            <path
              d="M119.595 12.6893V14.4717C120.241 13.9 120.713 13.3718 121.284 12.998C122.812 11.9981 124.378 12.2546 125.903 13.0436C126.016 13.1023 126.075 13.4131 126.04 13.5805C125.988 13.8174 125.83 14.0348 125.708 14.2544C125.484 14.6587 125.343 15.2216 124.997 15.4108C124.684 15.5825 124.143 15.3499 123.706 15.2803C122.163 15.0369 120.632 15.9259 120.163 17.4475C119.935 18.1909 119.837 18.9886 119.793 19.769C119.722 21.0732 119.735 22.3817 119.726 23.6881C119.722 24.2272 119.528 24.5163 118.935 24.475C118.446 24.4402 117.95 24.4446 117.461 24.4859C116.841 24.538 116.648 24.288 116.654 23.6794C116.689 20.5537 116.696 17.4258 116.698 14.3C116.698 12.6263 116.685 12.6219 118.409 12.6176C118.776 12.6176 119.143 12.6611 119.598 12.6915L119.595 12.6893Z"
              fill="white"
            />
            <path
              d="M97.0633 16.2111C97.0633 18.7087 97.0481 21.2041 97.0742 23.6995C97.0807 24.3016 96.9133 24.5559 96.2808 24.4972C95.7482 24.4494 95.2026 24.4537 94.6679 24.5015C94.0919 24.5537 93.9484 24.3124 93.9484 23.7799C93.9615 19.463 93.9528 15.1482 93.9506 10.8313C93.9506 10.0857 93.9658 9.33798 93.9462 8.59241C93.931 8.07073 94.1006 7.80989 94.6722 7.85119C95.2309 7.89031 95.7982 7.89683 96.3547 7.85119C96.9285 7.80554 97.0807 8.04464 97.0763 8.57937C97.0589 11.1226 97.0676 13.6658 97.0676 16.209C97.0655 16.209 97.0611 16.209 97.0589 16.209L97.0633 16.2111Z"
              fill="white"
            />
            <path
              d="M92.46 16.2376C92.46 18.7134 92.4448 21.1893 92.4709 23.6651C92.4774 24.2867 92.3187 24.5671 91.6427 24.4932C91.1101 24.4367 90.5667 24.4693 90.0276 24.4932C89.6299 24.5106 89.4755 24.3193 89.4581 23.9585C89.4516 23.8194 89.4473 23.6781 89.4473 23.539C89.4538 18.6569 89.4581 13.777 89.469 8.89494C89.4712 7.89722 89.5038 7.87766 90.5037 7.87549C90.8558 7.87549 91.2058 7.87549 91.5579 7.87114C92.1651 7.86679 92.4687 8.17908 92.4687 8.80799C92.4687 11.2838 92.4687 13.7596 92.4687 16.2354C92.4643 16.2354 92.46 16.2354 92.4556 16.2354L92.46 16.2376Z"
              fill="white"
            />
            <path
              d="M98.5864 18.538C98.5864 16.8099 98.5973 15.0818 98.5799 13.3559C98.5733 12.8538 98.7212 12.6386 99.2624 12.6712C99.8428 12.706 100.432 12.6603 101.014 12.6299C101.449 12.6082 101.664 12.7625 101.664 13.2255C101.656 16.7751 101.656 20.3226 101.658 23.8722C101.658 24.3069 101.484 24.5112 101.023 24.4938C100.414 24.4699 99.8036 24.4569 99.1972 24.496C98.6429 24.533 98.5299 24.2808 98.5364 23.7917C98.556 22.0419 98.5451 20.2899 98.5451 18.538C98.5603 18.538 98.5734 18.538 98.5886 18.538H98.5864Z"
              fill="white"
            />
            <path
              d="M100.118 7.74561C101.144 7.7543 101.95 8.51291 101.957 9.47585C101.963 10.4062 101.059 11.2865 100.107 11.2735C99.0681 11.2604 98.3029 10.4323 98.3247 9.34978C98.3464 8.37162 99.055 7.73691 100.118 7.74778V7.74561Z"
              fill="white"
            />
          </svg>