<svg id="Layer_1" data-name="Layer 1" xmlns="http://www.w3.org/2000/svg" viewBox="0 0 1005.16 294.42">
  <defs>
    <style>
      .cls-1 {
        fill: #ffe446;
      }

      .cls-1, .cls-2, .cls-3, .cls-4, .cls-5 {
        stroke-width: 0px;
      }

      .cls-2 {
        fill: #004430;
      }

      .cls-3 {
        fill: #e9a31a;
      }

      .cls-4 {
        fill: #fdd700;
      }

      .cls-5 {
        fill: #ecb813;
      }
    </style>
  </defs>
  <g>
    <path class="cls-2" d="m311.45,86.35c1.49,1.09,2.24,2.24,2.24,3.47,0,.82-.24,1.6-.71,2.35l-13.87,26c-.82,1.56-1.9,2.35-3.26,2.35-.75,0-1.56-.24-2.45-.71-4.49-2.51-8.77-3.77-12.85-3.77s-7.7,1.09-11.27,3.26c-3.57,2.18-6.47,5.45-8.72,9.84-2.24,4.38-3.36,9.77-3.36,16.16v55.26c0,1.36-.37,2.41-1.12,3.16s-1.8,1.12-3.16,1.12h-31.2c-1.36,0-2.41-.37-3.16-1.12-.75-.75-1.12-1.8-1.12-3.16v-115.31c0-2.79,1.43-4.18,4.28-4.18h23.76c2.24,0,3.91,1.02,5,3.06l6.12,9.38c3.26-4.69,7.43-8.27,12.49-10.76,5.06-2.48,10.86-3.72,17.38-3.72,8.43,0,16.75,2.45,24.98,7.34Z"/>
    <path class="cls-2" d="m319.1,64.84v-27.63c0-2.85,1.39-4.28,4.18-4.28h31.5c2.85,0,4.28,1.43,4.28,4.28v27.63c0,2.85-1.43,4.28-4.28,4.28h-31.5c-2.79,0-4.18-1.43-4.18-4.28Zm38.64,138.87c-.75.75-1.8,1.12-3.16,1.12h-31.2c-1.36,0-2.41-.37-3.16-1.12-.75-.75-1.12-1.8-1.12-3.16v-115.31c0-2.79,1.43-4.18,4.28-4.18h31.2c2.85,0,4.28,1.39,4.28,4.18v115.31c0,1.36-.37,2.41-1.12,3.16Z"/>
    <path class="cls-2" d="m477.54,86c7.61,4.66,13.49,11.23,17.64,19.73,4.15,8.5,6.22,18.32,6.22,29.47v65.35c0,2.85-1.39,4.28-4.18,4.28h-31.2c-2.85,0-4.28-1.43-4.28-4.28v-60.87c0-4.83-.87-9.09-2.6-12.8-1.73-3.7-4.22-6.58-7.44-8.62-3.23-2.04-6.95-3.06-11.16-3.06-4.62,0-8.8,1.09-12.54,3.26-3.74,2.18-6.66,5-8.77,8.46-2.11,3.47-3.16,7.07-3.16,10.81v62.81c0,1.36-.37,2.41-1.12,3.16s-1.8,1.12-3.16,1.12h-31.2c-1.36,0-2.41-.37-3.16-1.12-.75-.75-1.12-1.8-1.12-3.16v-115.31c0-2.79,1.43-4.18,4.28-4.18h23.76c2.24,0,3.91,1.02,5,3.06l5.4,8.87c4.83-4.15,10.62-7.51,17.38-10.09,6.76-2.58,13.03-3.87,18.81-3.87,10.13,0,19,2.33,26.61,6.98Z"/>
    <path class="cls-2" d="m553.7,203.71c-.75.75-1.8,1.12-3.16,1.12h-31.2c-1.36,0-2.41-.37-3.16-1.12-.75-.75-1.12-1.8-1.12-3.16v-82.69h-8.46c-1.36,0-2.41-.37-3.16-1.12-.75-.75-1.12-1.8-1.12-3.16v-28.34c0-2.79,1.43-4.18,4.28-4.18h8.26v-22.43c0-2.65,1.26-4.21,3.77-4.69l31.61-6.22c.27-.07.65-.1,1.12-.1,1.09,0,1.95.36,2.6,1.07.65.71.97,1.68.97,2.91v29.47h17.23c2.85,0,4.28,1.39,4.28,4.18v28.34c0,1.36-.37,2.41-1.12,3.16-.75.75-1.8,1.12-3.16,1.12h-17.33v82.69c0,1.36-.37,2.41-1.12,3.16Z"/>
    <path class="cls-2" d="m681.35,86c7.61,4.66,13.49,11.23,17.64,19.73,4.15,8.5,6.22,18.32,6.22,29.47v65.35c0,2.85-1.39,4.28-4.18,4.28h-31.2c-2.85,0-4.28-1.43-4.28-4.28v-60.87c0-4.83-.87-9.09-2.6-12.8-1.73-3.7-4.22-6.58-7.44-8.62-3.23-2.04-6.95-3.06-11.16-3.06-4.62,0-8.8,1.09-12.54,3.26-3.74,2.18-6.66,5-8.77,8.46-2.11,3.47-3.16,7.07-3.16,10.81v62.81c0,1.36-.37,2.41-1.12,3.16s-1.8,1.12-3.16,1.12h-31.2c-1.36,0-2.41-.37-3.16-1.12-.75-.75-1.12-1.8-1.12-3.16v-115.31c0-2.79,1.43-4.18,4.28-4.18h23.76c2.24,0,3.91,1.02,5,3.06l5.4,8.87c4.83-4.15,10.62-7.51,17.38-10.09,6.76-2.58,13.03-3.87,18.81-3.87,10.13,0,19,2.33,26.61,6.98Z"/>
    <path class="cls-2" d="m743.08,199.27c-9.89-5.81-17.59-13.63-23.09-23.45-5.51-9.82-8.26-20.54-8.26-32.17s2.63-22.46,7.9-32.32c5.27-9.85,12.64-17.71,22.12-23.55,9.48-5.84,20.27-8.77,32.37-8.77,13.19,0,24.55,2.75,34.1,8.26,9.55,5.51,16.84,13.12,21.87,22.84,5.03,9.72,7.54,20.83,7.54,33.34,0,3.47-.17,6.59-.51,9.38-.27,2.72-1.77,4.08-4.49,4.08h-80.04c2.45,5.23,5.95,9.19,10.5,11.88,4.55,2.69,9.69,4.03,15.4,4.03,3.87,0,7.32-.51,10.35-1.53,3.02-1.02,6.07-2.51,9.13-4.49.88-.68,1.8-1.02,2.75-1.02,1.16,0,2.17.65,3.06,1.94l14.78,21c.61.88.92,1.77.92,2.65,0,1.29-.58,2.38-1.73,3.26-5.64,4.22-11.9,7.49-18.76,9.84-6.87,2.35-14.24,3.52-22.12,3.52-12.64,0-23.91-2.91-33.8-8.72Zm46.44-82.69c-3.94-2.55-8.63-3.82-14.07-3.82s-10.14,1.29-14.12,3.87c-3.98,2.58-7.02,6.42-9.13,11.52h46.19c-1.97-5.16-4.93-9.02-8.87-11.57Z"/>
    <path class="cls-2" d="m863.85,203.09c-8.16-3.26-15.97-8.19-23.45-14.78-1.09-1.02-1.63-2.04-1.63-3.06,0-.88.37-1.87,1.12-2.96l14.99-19.17c.95-1.22,1.97-1.84,3.06-1.84.95,0,1.94.41,2.96,1.22,4.21,2.92,8.92,5.34,14.12,7.24,5.2,1.9,10.14,2.85,14.84,2.85,2.31,0,4.08-.29,5.3-.87,1.22-.58,1.84-1.58,1.84-3.01s-1.17-3.07-3.52-4.74c-2.35-1.66-7.02-3.72-14.02-6.17-10.26-3.6-18.73-8.44-25.39-14.53-6.66-6.08-9.99-14.53-9.99-25.34,0-6.86,1.72-13.25,5.15-19.17,3.43-5.91,8.65-10.69,15.65-14.32,7-3.64,15.6-5.45,25.79-5.45,6.93,0,14.07,1.39,21.41,4.18,7.34,2.79,13.87,7,19.58,12.64.88.88,1.32,1.84,1.32,2.85,0,1.09-.48,2.11-1.43,3.06l-18.96,19.68c-.88.95-1.84,1.43-2.85,1.43s-2.07-.44-3.16-1.33c-2.31-1.83-5.01-3.36-8.11-4.59-3.09-1.22-6.17-1.84-9.23-1.84-4.76,0-7.14,1.39-7.14,4.18,0,1.02.58,1.99,1.73,2.91,1.16.92,3.04,1.9,5.66,2.96,2.62,1.05,6.37,2.4,11.27,4.03,11.15,3.67,19.66,8.5,25.54,14.48,5.88,5.98,8.82,14.17,8.82,24.57,0,6.8-1.72,13.24-5.15,19.32-3.43,6.08-8.48,11.01-15.14,14.78-6.66,3.77-14.62,5.66-23.86,5.66-9.92,0-18.96-1.63-27.12-4.89Z"/>
    <path class="cls-2" d="m982.43,203.71c-.75.75-1.8,1.12-3.16,1.12h-31.2c-1.36,0-2.41-.37-3.16-1.12-.75-.75-1.12-1.8-1.12-3.16v-82.69h-8.46c-1.36,0-2.41-.37-3.16-1.12-.75-.75-1.12-1.8-1.12-3.16v-28.34c0-2.79,1.43-4.18,4.28-4.18h8.26v-22.43c0-2.65,1.26-4.21,3.77-4.69l31.61-6.22c.27-.07.65-.1,1.12-.1,1.09,0,1.95.36,2.6,1.07.65.71.97,1.68.97,2.91v29.47h17.23c2.85,0,4.28,1.39,4.28,4.18v28.34c0,1.36-.37,2.41-1.12,3.16-.75.75-1.8,1.12-3.16,1.12h-17.33v82.69c0,1.36-.37,2.41-1.12,3.16Z"/>
  </g>
  <g>
    <path class="cls-2" d="m0,125.76h54.85v168.65h0C24.58,294.42,0,269.84,0,239.57v-113.8H0Z"/>
    <path class="cls-2" d="m210.77,102.66c0,1.47-.04,2.95-.1,4.4-.4,9.42-2.11,18.51-4.96,27.1-2.88,8.71-6.92,16.92-11.95,24.43-4.97,7.44-10.9,14.22-17.63,20.15-6.56,5.79-13.88,10.79-21.79,14.83-7.65,3.93-15.85,6.96-24.46,8.94-7.85,1.83-16.05,2.79-24.47,2.79h-.05v.1c0,1.14-.45,2.09-1.15,2.77-1.39,1.36-3.76,1.61-5.41.03l-3.48-3.38-13.82-13.51-9.24-9.02c-1.54-1.49-1.54-4,0-5.54l11.49-11.22,6.3-6.15,4.36-4.25,4.39-4.29c1.64-1.58,4.01-1.33,5.41.03.7.67,1.15,1.63,1.15,2.77v2.66h.05c4.04,0,7.97-.47,11.74-1.34,4.34-1.01,8.45-2.56,12.27-4.57,3.93-2.07,7.54-4.64,10.76-7.62,3.28-3.02,6.12-6.47,8.47-10.24,2.34-3.77,4.18-7.88,5.42-12.22,1.2-4.2,1.85-8.64,1.85-13.22v-.04c0-4.74-.69-9.33-1.98-13.67-1.31-4.44-3.26-8.63-5.74-12.46-2.36-3.69-5.24-7.06-8.5-10-3.21-2.89-6.8-5.38-10.69-7.39-3.76-1.95-7.81-3.44-12.08-4.41-3.69-.84-7.54-1.28-11.5-1.28-.4,0-.81,0-1.2.03-4.35.09-8.57.72-12.57,1.83-.12.03-.23.05-.35.09-4.04,1.13-7.87,2.76-11.4,4.79L51.08,14.67c7.91-4.65,16.5-8.32,25.6-10.81C85.45,1.45,94.67.11,104.2,0c.4,0,.8,0,1.2,0,9.14,0,18,1.13,26.45,3.27,9.2,2.31,17.91,5.81,25.96,10.31,8.23,4.61,15.76,10.26,22.4,16.78,6.7,6.57,12.48,14.03,17.15,22.16,4.71,8.17,8.3,17.03,10.57,26.39,1.85,7.61,2.83,15.57,2.83,23.74Z"/>
    <path class="cls-4" d="m69.68,72.24c-3.08,3-5.77,6.38-7.97,10.07L12.59,53.95c4.5-8.13,10.09-15.59,16.59-22.21l40.49,40.5Z"/>
    <path class="cls-3" d="m56.6,94.19c-1.14,4.1-1.75,8.41-1.75,12.87H.1c-.05-1.45-.1-2.91-.1-4.4,0-7.88.91-15.56,2.64-22.93l53.96,14.47Z"/>
    <path class="cls-5" d="m61.7,82.31c-2.2,3.68-3.93,7.67-5.1,11.88L2.64,79.72c2.13-9.11,5.51-17.76,9.95-25.77l49.11,28.36Z"/>
    <path class="cls-1" d="m79.88,64.57c-.58.33-1.15.67-1.72,1.02-3.07,1.91-5.92,4.15-8.49,6.65L29.19,31.74c5.03-5.13,10.61-9.75,16.64-13.78,1.72-1.15,3.47-2.24,5.25-3.3l28.8,49.9Z"/>
  </g>
</svg>